ply
format ascii 1.0
comment VCGLIB generated
element vertex 19
property float x
property float y
property float z
property uchar red
property uchar green
property uchar blue
property uchar alpha
element face 0
property list uchar int vertex_indices
end_header
0.103344 -0.273717 0.857 221 196 174 255 
0.105421 -0.273073 0.855 220 195 173 255 
0.100779 -0.27539 0.855 228 202 184 255 
0.102856 -0.274741 0.853 220 194 175 255 
0.105169 -0.274736 0.853 222 197 175 255 
0.10786 -0.275696 0.856 221 194 171 255 
0.100302 -0.276397 0.851 228 202 184 255 
0.107477 -0.277031 0.853 221 194 172 255 
0.110047 -0.277676 0.855 223 196 173 255 
0.112365 -0.27767 0.855 220 192 169 255 
0.114414 -0.277015 0.853 227 200 177 255 
0.107219 -0.278678 0.851 222 195 173 255 
0.109913 -0.279655 0.854 222 195 172 255 
0.112228 -0.27965 0.854 222 195 172 255 
0.114275 -0.27899 0.852 221 193 170 255 
0.109522 -0.280969 0.851 220 194 175 255 
0.111829 -0.280964 0.851 221 194 172 255 
0.113867 -0.280298 0.849 221 194 172 255 
0.111692 -0.282927 0.85 225 200 178 255 
